<svg xmlns:xlink="http://www.w3.org/1999/xlink" width="30" height="30" viewBox="0 0 30 30" fill="none" xmlns="http://www.w3.org/2000/svg">
<path d="M13.0621 20.6184L12.7429 22.0694L14.8476 21.4316C14.8971 21.4166 14.9485 21.4091 15.0001 21.4091C15.0515 21.4091 15.1031 21.4166 15.1525 21.4316L17.2572 22.0694L16.938 20.6184C16.9112 20.4961 16.9428 20.3692 17.0251 20.2695L18.0125 19.0726L16.352 18.7707C16.2357 18.7495 16.132 18.6901 16.0608 18.6038L15 17.3182L13.9393 18.6039C13.8681 18.6902 13.7644 18.7496 13.6481 18.7707L11.9876 19.0727L12.975 20.2695C13.0573 20.3693 13.089 20.4961 13.0621 20.6184Z" fill="#F6C946"/>
<path d="M11.4382 10.013L10.6855 7.96004C10.6013 7.73037 10.7378 7.48212 10.9904 7.40558C11.243 7.32909 11.5161 7.45319 11.6003 7.68281L12.4547 10.013H14.5179V7.82143C14.5179 7.57937 14.7337 7.38312 15 7.38312C15.2663 7.38312 15.4821 7.57937 15.4821 7.82143V10.013H17.5454L18.3998 7.68281C18.4839 7.45325 18.7569 7.32909 19.0096 7.40558C19.2622 7.48212 19.3988 7.73037 19.3146 7.96004L18.5618 10.013H19.1861C19.9054 9.54438 21.4737 8.41008 21.7808 7.66731C22.0791 6.94552 22.6925 5.00434 23.0114 3.97798C22.8251 4.044 22.6715 4.13704 22.4994 4.24135C22.1231 4.46939 21.6547 4.75325 20.7855 4.75325C19.8211 4.75325 19.3399 4.16996 18.9532 3.7013C18.5836 3.2534 18.3522 3 17.8924 3C17.4327 3 17.2012 3.2534 16.8317 3.7013C16.4451 4.17002 15.9639 4.75325 14.9996 4.75325C14.0354 4.75325 13.5542 4.16996 13.1675 3.7013C12.798 3.2534 12.5665 3 12.1068 3C11.6471 3 11.4156 3.2534 11.0462 3.7013C10.6595 4.16996 10.1783 4.75325 9.21411 4.75325C8.34492 4.75325 7.87664 4.46938 7.50033 4.2413C7.32833 4.13709 7.17482 4.044 6.98859 3.97798C7.30747 5.00429 7.92094 6.94546 8.21926 7.66725C8.52627 8.41003 10.0946 9.54438 10.8139 10.0129L11.4382 10.013Z" fill="#F6C946"/>
<path d="M10.8747 10.8896C10.7105 11.0563 10.413 11.3629 10.0412 11.7662H19.9591C19.5872 11.3629 19.2897 11.0563 19.1254 10.8896H10.8747Z" fill="#F6C946"/>
<path d="M15 24.9156C17.9244 24.9156 20.3036 22.7527 20.3036 20.0942C20.3036 17.4356 17.9244 15.2727 15 15.2727C12.0756 15.2727 9.69643 17.4356 9.69643 20.0942C9.69643 22.7527 12.0756 24.9156 15 24.9156ZM10.6925 18.6228C10.7515 18.4822 10.8859 18.379 11.0483 18.3495L13.2784 17.944L14.6143 16.3247C14.7054 16.2143 14.8482 16.1493 15 16.1493C15.1518 16.1493 15.2947 16.2143 15.3857 16.3247L16.7216 17.944L18.9517 18.3494C19.1141 18.3789 19.2485 18.4822 19.3075 18.6227C19.3666 18.7634 19.3422 18.9217 19.2429 19.0422L17.9258 20.6386L18.3657 22.638C18.3994 22.7913 18.3408 22.9492 18.212 23.0525C18.1225 23.1243 18.0086 23.1623 17.8929 23.1623C17.8418 23.1623 17.7903 23.1549 17.7404 23.1398L15 22.3094L12.2596 23.1399C12.0966 23.1892 11.9169 23.1561 11.7881 23.0526C11.6592 22.9492 11.6007 22.7913 11.6344 22.6381L12.0743 20.6387L10.7571 19.0422C10.6578 18.9218 10.6334 18.7634 10.6925 18.6228Z" fill="#F6C946"/>
<path d="M4.89362 24.1099C4.77797 24.9806 5.07865 25.8563 5.71857 26.5126C6.35873 27.169 7.27933 27.5455 8.24434 27.5455H21.7556C22.7206 27.5455 23.6413 27.169 24.2814 26.5125C24.9213 25.8562 25.222 24.9805 25.1063 24.1098C24.6655 20.7917 24.3427 18.6788 24.1726 17.9998C23.7617 16.3581 22.0824 14.1817 20.7442 12.6428H9.25617C7.91774 14.1821 6.23796 16.3592 5.82729 17.9998C5.65728 18.6789 5.33442 20.7917 4.89362 24.1099ZM15 14.3961C18.4561 14.3961 21.2679 16.9522 21.2679 20.0942C21.2679 23.2361 18.4561 25.7922 15 25.7922C11.5439 25.7922 8.73214 23.2361 8.73214 20.0942C8.73214 16.9522 11.5439 14.3961 15 14.3961Z" fill="#F6C946"/>
<path d="M9.94473 10.5198C9.75429 10.7154 9.50056 10.9817 9.20705 11.3016C8.44406 11.5438 7.48641 11.8961 6.53719 12.3777C3.83478 13.7474 2.46429 15.459 2.46429 17.4643C2.46429 17.7065 2.24853 17.9026 1.98214 17.9026C1.71576 17.9026 1.5 17.7065 1.5 17.4643C1.5 15.1451 3.08625 13.1179 6.08699 11.6024C7.41228 10.9334 8.72552 10.505 9.58192 10.2656C9.71391 10.3603 9.83625 10.4464 9.94473 10.5198Z" fill="#F6C946"/>
<path d="M28.5 17.4643C28.5 17.7065 28.2842 17.9026 28.0179 17.9026C27.7515 17.9026 27.5357 17.7065 27.5357 17.4643C27.5357 15.459 26.1652 13.7474 23.4628 12.3777C22.5136 11.8966 21.5559 11.5432 20.7923 11.3016C20.4994 10.9817 20.2457 10.7154 20.0553 10.5198C20.1638 10.4464 20.2861 10.3603 20.4181 10.2656C21.2745 10.505 22.5877 10.9334 23.913 11.6024C26.9138 13.1179 28.5 15.1451 28.5 17.4643Z" fill="#F6C946"/>
</svg>