<svg xmlns:xlink="http://www.w3.org/1999/xlink" width="30" height="30" viewBox="0 0 30 30" fill="none" xmlns="http://www.w3.org/2000/svg">
<path d="M25.9631 13.7291C25.9052 13.7284 25.8475 13.7192 25.7921 13.7015H22.2911C21.3789 13.7043 20.6399 14.4432 20.6371 15.3555V17.2081C20.6399 18.1204 21.3789 18.8595 22.2911 18.8621H27.4132V13.7015H26.1341C26.0788 13.7196 26.0213 13.7291 25.9631 13.7291ZM23.3938 17.2025C23.3938 17.507 23.147 17.7538 22.8425 17.7538C22.5382 17.7538 22.2911 17.507 22.2911 17.2025V15.3555C22.2911 15.0512 22.5382 14.8042 22.8425 14.8042C23.147 14.8042 23.3938 15.0512 23.3938 15.3555V17.2025Z" fill="#F6C946"/>
<path d="M11.8985 11C8.94495 11 6.55051 13.3944 6.55051 16.3479C6.55051 19.3017 8.94495 21.6959 11.8985 21.6959C14.8522 21.6959 17.2464 19.3017 17.2464 16.3479C17.2436 13.3955 14.8509 11.0028 11.8985 11ZM13.3266 14.3192H14.0818C14.3864 14.3192 14.6332 14.566 14.6332 14.8705C14.6332 15.1748 14.3864 15.4219 14.0818 15.4219H13.3266C13.0789 16.4688 12.1731 17.2288 11.099 17.2908L13.2163 19.2922C13.3808 19.4468 13.4336 19.6865 13.3496 19.8961C13.2656 20.1056 13.0617 20.2424 12.8357 20.2404C12.6949 20.2402 12.559 20.1873 12.4554 20.0916L9.33476 17.142C9.17086 16.9861 9.11832 16.7464 9.20209 16.5362C9.28587 16.3262 9.48917 16.1883 9.71531 16.1881H10.9668C11.4843 16.1892 11.9545 15.8873 12.1688 15.4163H9.72069C9.41638 15.4163 9.16936 15.1695 9.16936 14.8649C9.16936 14.5604 9.41638 14.3136 9.72069 14.3136H12.1688C11.9525 13.8443 11.4835 13.543 10.9668 13.5417H9.71531C9.41078 13.5417 9.16397 13.2949 9.16397 12.9904C9.16397 12.6859 9.41078 12.4391 9.71531 12.4391H14.0818C14.3864 12.4391 14.6332 12.6859 14.6332 12.9904C14.6332 13.2949 14.3864 13.5417 14.0818 13.5417H12.9958C13.1484 13.7806 13.2602 14.0433 13.3266 14.3192Z" fill="#F6C946"/>
<path d="M5.20534 7.80223H22.6166V4.19099C22.6168 3.97174 22.5298 3.76112 22.3747 3.60605C22.2194 3.45078 22.009 3.36377 21.7896 3.36398H5.20534C3.98724 3.36377 2.99957 4.35122 3 5.56933V5.59689C2.99957 6.815 3.98724 7.80266 5.20534 7.80223ZM5.75668 5.03457H19.8599C20.1644 5.03457 20.4112 5.28138 20.4112 5.58591C20.4112 5.89044 20.1644 6.13724 19.8599 6.13724H5.75668C5.45215 6.13724 5.20534 5.89044 5.20534 5.58591C5.20534 5.28138 5.45215 5.03457 5.75668 5.03457Z" fill="#F6C946"/>
<path d="M19.5345 17.2025V15.3555C19.5351 13.8333 20.7689 12.5995 22.2911 12.5989H25.4118V8.9049H5.20534C4.39126 8.9062 3.60561 8.60576 3 8.06153V21.6132C2.99957 22.8313 3.98724 23.819 5.20534 23.8185H25.445V19.9592H22.2967C20.7735 19.9592 19.5377 18.726 19.5345 17.2025ZM11.8985 22.7986C8.33589 22.7986 5.44784 19.9105 5.44784 16.3479C5.44784 12.7854 8.33589 9.89731 11.8985 9.89731C15.461 9.89731 18.3491 12.7854 18.3491 16.3479C18.3446 19.9088 15.4593 22.794 11.8985 22.7986Z" fill="#F6C946"/>
<path d="M24.6818 2.25V6.61364M26.8636 4.97727V10.9773M20.5909 22.5682V26.1136M18.6818 24.4773V27.75" stroke="#F6C946" stroke-linecap="round"/>
</svg>