<svg xmlns:xlink="http://www.w3.org/1999/xlink" width="30" height="30" viewBox="0 0 30 30" fill="none" xmlns="http://www.w3.org/2000/svg">
<path d="M23 19.5C22.45 19.5 22 19.95 22 20.5C22 20.59 22.015 20.675 22.035 20.755L23.255 19.535C23.175 19.515 23.09 19.5 23 19.5Z" fill="#F6C946"/>
<path d="M22.745 21.465C22.825 21.485 22.91 21.5 23 21.5C23.55 21.5 24 21.05 24 20.5C24 20.41 23.985 20.325 23.965 20.245L22.745 21.465Z" fill="#F6C946"/>
<path d="M24.205 8.07001C23.975 8.02501 23.74 8.00001 23.5 8.00001H16.96L19.91 3.78501C20.07 3.56001 20.015 3.24501 19.785 3.09001C19.56 2.93001 19.245 2.98501 19.09 3.21501L15.74 8.00001H14.26L10.91 3.21501C10.75 2.99001 10.44 2.93501 10.215 3.09001C9.99 3.25001 9.935 3.56001 10.09 3.78501L13.04 8.00001H6.5C6.26 8.00001 6.025 8.02501 5.795 8.07001C4.43 8.35001 3.35 9.43001 3.07 10.795C3.025 11.025 3 11.26 3 11.5V21.5C3 21.74 3.025 21.975 3.07 22.205C3.35 23.57 4.43 24.65 5.795 24.93C6.025 24.975 6.26 25 6.5 25H7.36L7.015 26.38C6.98 26.53 7.01 26.685 7.105 26.81C7.2 26.93 7.345 27 7.5 27H9C9.19 27 9.365 26.895 9.445 26.725L10.31 25H19.695L20.555 26.725C20.635 26.895 20.81 27 21 27H22.5C22.655 27 22.8 26.93 22.895 26.81C22.99 26.685 23.02 26.53 22.985 26.38L22.64 25H23.5C23.74 25 23.975 24.975 24.205 24.93C25.57 24.65 26.65 23.57 26.93 22.205C26.975 21.975 27 21.74 27 21.5V11.5C27 11.26 26.975 11.025 26.93 10.795C26.65 9.43001 25.57 8.35001 24.205 8.07001ZM23 10.5C23.825 10.5 24.5 11.175 24.5 12C24.5 12.825 23.825 13.5 23 13.5C22.175 13.5 21.5 12.825 21.5 12C21.5 11.175 22.175 10.5 23 10.5ZM23 14.5C23.825 14.5 24.5 15.175 24.5 16C24.5 16.825 23.825 17.5 23 17.5C22.175 17.5 21.5 16.825 21.5 16C21.5 15.175 22.175 14.5 23 14.5ZM17 23H8C6.345 23 5 21.655 5 20V13C5 11.345 6.345 10 8 10H17C18.655 10 20 11.345 20 13V20C20 21.655 18.655 23 17 23ZM23 22.5C22.45 22.5 21.955 22.275 21.59 21.92C21.59 21.915 21.59 21.915 21.585 21.915C21.585 21.91 21.585 21.91 21.58 21.91C21.225 21.545 21 21.05 21 20.5C21 19.395 21.895 18.5 23 18.5C23.55 18.5 24.045 18.725 24.41 19.08C24.41 19.085 24.41 19.085 24.415 19.085C24.415 19.09 24.415 19.09 24.42 19.09C24.775 19.455 25 19.95 25 20.5C25 21.605 24.105 22.5 23 22.5Z" fill="#F6C946"/>
<path d="M10.8 17.755L12.245 18.585C12.32 18.625 12.405 18.645 12.485 18.645C12.565 18.645 12.65 18.62 12.725 18.58L14.18 17.74C14.33 17.655 14.42 17.5 14.42 17.33L14.425 15.665C14.43 15.495 14.335 15.335 14.185 15.25L12.74 14.42C12.59 14.34 12.41 14.34 12.26 14.425L10.805 15.265C10.655 15.35 10.565 15.505 10.565 15.675L10.555 17.34C10.555 17.51 10.65 17.665 10.8 17.755V17.755Z" fill="#F6C946"/>
<path d="M12.82 19.23C12.64 19.065 12.36 19.065 12.18 19.23L10.6 20.655C10.485 20.76 10.43 20.91 10.44 21.06C10.45 21.16 10.465 21.26 10.48 21.355C11.1 21.615 11.78 21.755 12.5 21.755C13.175 21.755 13.815 21.63 14.405 21.395C14.44 21.345 14.465 21.3 14.495 21.245C14.61 21.05 14.57 20.8 14.4 20.645L12.82 19.23Z" fill="#F6C946"/>
<path d="M17.065 16.965L15.07 17.51C14.86 17.565 14.715 17.76 14.715 17.975C14.715 18.01 14.72 18.035 14.725 18.07L15.16 20.215C15.195 20.41 15.345 20.565 15.545 20.605C15.615 20.62 15.69 20.63 15.755 20.645C16.82 19.805 17.55 18.57 17.72 17.16C17.62 17.105 17.515 17.055 17.41 17C17.305 16.945 17.18 16.93 17.065 16.965V16.965Z" fill="#F6C946"/>
<path d="M14.24 11.53C13.13 11.14 11.86 11.14 10.76 11.53C10.67 11.565 10.575 11.595 10.485 11.64H10.48C10.47 11.73 10.455 11.82 10.44 11.915C10.415 12.065 10.47 12.215 10.575 12.325L12.155 13.88C12.25 13.97 12.37 14.015 12.495 14.015C12.615 14.015 12.735 13.97 12.83 13.88L14.41 12.325C14.515 12.225 14.57 12.08 14.555 11.935C14.545 11.835 14.535 11.74 14.525 11.645C14.435 11.6 14.34 11.565 14.24 11.53Z" fill="#F6C946"/>
<path d="M15.945 12.52C15.865 12.545 15.775 12.565 15.69 12.585C15.525 12.63 15.4 12.755 15.355 12.92L14.81 14.895C14.75 15.125 14.865 15.365 15.08 15.46L17.055 16.335C17.115 16.36 17.18 16.375 17.245 16.375C17.32 16.375 17.395 16.36 17.465 16.32C17.56 16.27 17.655 16.22 17.75 16.17C17.67 14.74 17 13.43 15.945 12.52V12.52Z" fill="#F6C946"/>
<path d="M7.785 16.125C7.84 16.125 7.89 16.12 7.94 16.1L9.955 15.485C10.195 15.41 10.34 15.16 10.275 14.915L9.78 12.82C9.745 12.685 9.66 12.57 9.535 12.51C9.44 12.455 9.345 12.41 9.255 12.36C8.165 13.21 7.435 14.475 7.275 15.885V15.89C7.355 15.945 7.44 15.995 7.52 16.055C7.6 16.1 7.695 16.125 7.785 16.125V16.125Z" fill="#F6C946"/>
<path d="M9.96 17.515L7.935 16.87C7.81 16.83 7.675 16.84 7.565 16.905C7.465 16.96 7.365 17.01 7.27 17.065C7.42 18.495 8.14 19.755 9.21 20.615C9.28 20.605 9.355 20.59 9.425 20.58C9.62 20.55 9.78 20.405 9.82 20.21L10.28 18.075C10.33 17.835 10.195 17.59 9.96 17.515V17.515Z" fill="#F6C946"/>
</svg>