<svg xmlns:xlink="http://www.w3.org/1999/xlink" width="30" height="30" viewBox="0 0 30 30" fill="none" xmlns="http://www.w3.org/2000/svg">
<g clip-path="url(#clip0_1_25)">
<path d="M19.3238 3.46975H19.1217L19.8901 2.70139C20.2028 2.38874 20.2028 1.88173 19.8901 1.56902C19.5774 1.25637 19.0704 1.25637 18.7577 1.56902L16.6225 3.70425C16.3097 4.0169 16.3097 4.52392 16.6225 4.83662L18.7577 6.97185C18.914 7.1282 19.1189 7.20641 19.3238 7.20641C19.5288 7.20641 19.7337 7.1282 19.89 6.97185C20.2027 6.6592 20.2027 6.15219 19.89 5.83948L19.1217 5.07118H19.3238C21.8257 5.07118 23.8612 7.10664 23.8612 9.60854C23.8612 10.0507 24.2197 10.4093 24.6619 10.4093C25.1041 10.4093 25.4626 10.0507 25.4626 9.60854C25.4626 6.22361 22.7088 3.46975 19.3238 3.46975V3.46975Z" fill="#F6C946"/>
<path d="M11.2423 23.0282C10.9297 22.7155 10.4227 22.7155 10.1099 23.0282C9.79724 23.3408 9.79724 23.8478 10.1099 24.1605L10.8783 24.9288H10.6762C8.17425 24.9288 6.13879 22.8934 6.13879 20.3915C6.13879 19.9493 5.78029 19.5908 5.33808 19.5908C4.89587 19.5908 4.53737 19.9493 4.53737 20.3915C4.53737 23.7764 7.29123 26.5303 10.6762 26.5303H10.8783L10.11 27.2986C9.7973 27.6113 9.7973 28.1183 10.11 28.431C10.2663 28.5873 10.4712 28.6655 10.6762 28.6655C10.8811 28.6655 11.086 28.5873 11.2423 28.4309L13.3775 26.2957C13.6902 25.9831 13.6902 25.476 13.3775 25.1633L11.2423 23.0282Z" fill="#F6C946"/>
<g clip-path="url(#clip1_1_25)">
<path d="M22.4087 20.0887C23.5038 20.0887 24.4521 19.6959 25.2269 18.921C26.0017 18.1462 26.3945 17.1982 26.3945 16.1029C26.3945 15.0081 26.0017 14.0599 25.2268 13.2849C24.4519 12.5102 23.5037 12.1174 22.4087 12.1174C21.3135 12.1174 20.3655 12.5102 19.5907 13.285C18.8159 14.0598 18.423 15.0079 18.423 16.1029C18.423 17.1982 18.8159 18.1463 19.5908 18.9211C20.3657 19.6958 21.3139 20.0887 22.4087 20.0887V20.0887Z" fill="#F6C946"/>
<path d="M29.3827 24.842C29.3604 24.5196 29.3152 24.1679 29.2486 23.7964C29.1815 23.4222 29.095 23.0685 28.9915 22.7451C28.8845 22.4109 28.7391 22.0809 28.5593 21.7647C28.3727 21.4364 28.1535 21.1506 27.9076 20.9154C27.6504 20.6693 27.3356 20.4715 26.9715 20.3272C26.6086 20.1836 26.2065 20.1109 25.7764 20.1109C25.6074 20.1109 25.4441 20.1802 25.1286 20.3856C24.9344 20.5123 24.7073 20.6587 24.4538 20.8207C24.237 20.9588 23.9433 21.0882 23.5806 21.2054C23.2267 21.3199 22.8674 21.378 22.5128 21.378C22.1581 21.378 21.7989 21.3199 21.4447 21.2054C21.0823 21.0883 20.7887 20.9589 20.5722 20.8208C20.3211 20.6603 20.0938 20.5139 19.8967 20.3855C19.5816 20.1801 19.4181 20.1108 19.2492 20.1108C18.8189 20.1108 18.4169 20.1836 18.0542 20.3273C17.6904 20.4714 17.3754 20.6692 17.1179 20.9155C16.8721 21.1508 16.6528 21.4365 16.4665 21.7647C16.2868 22.0809 16.1414 22.4108 16.0343 22.7453C15.9309 23.0686 15.8444 23.4222 15.7773 23.7964C15.7107 24.1674 15.6655 24.5192 15.6432 24.8424C15.6212 25.1591 15.6101 25.4877 15.6101 25.8196C15.6101 26.6834 15.8847 27.3827 16.4262 27.8984C16.961 28.4074 17.6686 28.6655 18.5292 28.6655H26.4971C27.3577 28.6655 28.065 28.4075 28.6 27.8984C29.1416 27.3831 29.4162 26.6837 29.4162 25.8195C29.4161 25.486 29.4048 25.1572 29.3827 24.842V24.842Z" fill="#F6C946"/>
</g>
<g clip-path="url(#clip2_1_25)">
<path d="M7.35536 9.30577C8.45046 9.30577 9.39873 8.91301 10.1735 8.13808C10.9483 7.36327 11.3411 6.41525 11.3411 5.32003C11.3411 4.22518 10.9483 3.27703 10.1734 2.50198C9.39848 1.7273 8.45033 1.33453 7.35536 1.33453C6.26013 1.33453 5.31211 1.7273 4.53731 2.5021C3.76251 3.27691 3.36961 4.22505 3.36961 5.32003C3.36961 6.41525 3.76251 7.3634 4.53744 8.1382C5.31236 8.91288 6.26051 9.30577 7.35536 9.30577V9.30577Z" fill="#F6C946"/>
<path d="M14.3293 14.0591C14.307 13.7367 14.2618 13.385 14.1953 13.0135C14.1281 12.6393 14.0416 12.2856 13.9381 11.9622C13.8312 11.628 13.6857 11.298 13.5059 10.9818C13.3193 10.6535 13.1002 10.3677 12.8542 10.1325C12.597 9.88642 12.2822 9.68858 11.9181 9.54428C11.5552 9.40073 11.1531 9.32801 10.723 9.32801C10.5541 9.32801 10.3907 9.39732 10.0752 9.60273C9.88101 9.72936 9.65389 9.87581 9.40037 10.0378C9.1836 10.1759 8.88994 10.3053 8.52722 10.4225C8.17334 10.537 7.81403 10.5951 7.45939 10.5951C7.10475 10.5951 6.74557 10.537 6.39131 10.4225C6.02897 10.3054 5.73531 10.176 5.51878 10.0379C5.26767 9.87745 5.04042 9.731 4.84334 9.6026C4.52822 9.39719 4.36472 9.32788 4.1958 9.32788C3.76554 9.32788 3.36355 9.40073 3.00083 9.5444C2.63698 9.68845 2.32198 9.88629 2.06456 10.1326C1.81875 10.3679 1.59945 10.6536 1.4131 10.9818C1.23345 11.298 1.088 11.6279 0.980943 11.9624C0.877544 12.2857 0.791062 12.6393 0.723896 13.0135C0.657362 13.3845 0.612164 13.7363 0.589818 14.0595C0.56785 14.3762 0.55674 14.7048 0.55674 15.0367C0.55674 15.9005 0.831336 16.5998 1.37283 17.1156C1.90763 17.6245 2.61526 17.8827 3.47579 17.8827H11.4437C12.3043 17.8827 13.0117 17.6246 13.5466 17.1156C14.0882 16.6002 14.3628 15.9008 14.3628 15.0366C14.3627 14.7031 14.3514 14.3743 14.3293 14.0591V14.0591Z" fill="#F6C946"/>
</g>
</g>
<defs>
<clipPath id="clip0_1_25">
<rect width="30" height="30" fill="white"/>
</clipPath>
<clipPath id="clip1_1_25">
<rect width="16.548" height="16.548" fill="white" transform="translate(14.2527 12.1174)"/>
</clipPath>
<clipPath id="clip2_1_25">
<rect width="16.548" height="16.548" fill="white" transform="translate(-0.800712 1.33453)"/>
</clipPath>
</defs>
</svg>