<svg xmlns:xlink="http://www.w3.org/1999/xlink" width="30" height="30" viewBox="0 0 30 30" fill="none" xmlns="http://www.w3.org/2000/svg">
<path d="M4.42742 9.64718H6.60484V18.3569H4.42742C3.22644 18.3569 2.25 17.3804 2.25 16.1794V11.8246C2.25 10.6236 3.22644 9.64718 4.42742 9.64718ZM26.2016 9.64718H24.0242V18.3569H26.2016C27.4026 18.3569 28.379 17.3804 28.379 16.1794V11.8246C28.379 10.6236 27.4026 9.64718 26.2016 9.64718ZM15.3145 4.42137C11.4726 4.42137 8.34678 7.54716 8.34678 11.3891V16.6149C8.34678 20.4569 11.4726 23.5827 15.3145 23.5827C19.1565 23.5827 22.2823 20.4569 22.2823 16.6149V11.3891C22.2823 7.54716 19.1565 4.42137 15.3145 4.42137ZM15.3145 0.9375C10.4978 0.9375 6.25611 3.70691 4.28793 7.91375C4.33131 7.90524 4.38404 7.90524 4.42742 7.90524H6.25611C8.07715 4.72587 11.4819 2.67944 15.3145 2.67944C19.1471 2.67944 22.5519 4.72587 24.3729 7.90524H26.2016C26.245 7.90524 26.2977 7.90524 26.3411 7.91375C24.3729 3.70691 20.1312 0.9375 15.3145 0.9375ZM26.2016 20.0988H24.3729C22.5519 23.2782 19.1471 25.3246 15.3145 25.3246H14.4436V27.0665H15.3145C20.1312 27.0665 24.3636 24.2971 26.3411 20.0903C26.2977 20.0988 26.245 20.0988 26.2016 20.0988Z" fill="#F6C946"/>
<path d="M13.0849 26.2652C13.0849 25.3417 13.8336 24.593 14.7571 24.593C15.6807 24.593 16.4294 25.3417 16.4294 26.2652C16.4294 27.1888 15.6807 27.9375 14.7571 27.9375C13.8336 27.9375 13.0849 27.1888 13.0849 26.2652Z" fill="#F6C946"/>
</svg>